Patient4_TMGait_0pt6_02_right_34_GRF.mot
version=1
nRows=71
nColumns=19
inDegrees=no
endheader
time	F1x	F1y	F1z	M1x	M1y	M1z	F2x	F2y	F2z	M2x	M2y	M2z	EC1x	EC1y	EC1z	EC2x	EC2y	EC2z
40.9	-3.846	784.4607	84.7266	-259.9658	-84.6789	819.7515	-28.5055	0.34199	-1.1213	0.8785	5.5735	8.3412	-0.0592	0.0182	-0.0073	-0.0462	0.0165	0.9585
40.9122	-2.1301	776.8521	78.0457	-257.4038	-77.3412	805.761	-19.3211	1.2411	-0.63406	0.94379	3.7546	6.7761	-0.0592	0.0182	-0.0073	-0.0462	0.0165	0.9585
40.9244	-0.050141	768.0922	72.2276	-254.3925	-70.5716	790.5398	-11.5362	1.9709	-0.30142	1.0184	2.2754	5.4029	-0.0592	0.0182	-0.0073	-0.0462	0.0165	0.9585
40.9366	2.2853	758.9625	67.4932	-251.2019	-64.6524	775.1569	-5.5602	2.4888	-0.10263	1.0878	1.1772	4.295	-0.0592	0.0182	-0.0073	-0.0462	0.0165	0.9585
40.9489	4.7163	750.2559	63.9047	-248.1058	-59.7271	760.5519	-1.4482	2.8627	-0.0054	1.1582	0.44722	3.5683	-0.0592	0.0182	-0.0073	-0.0462	0.0165	0.9585
40.9611	7.1319	742.6166	61.24	-245.3339	-55.6608	747.3911	1.1166	3.0793	0.026175	1.215	0.0075683	3.1008	-0.0592	0.0182	-0.0073	-0.0462	0.0165	0.9585
40.9733	9.4617	736.4281	59.3651	-243.0179	-52.3721	736.0157	2.4418	3.1922	0.013986	1.2568	-0.19695	2.8785	-0.0592	0.0182	-0.0073	-0.0462	0.0165	0.9585
40.9855	11.6995	731.7969	57.9977	-241.1977	-49.6181	726.4466	2.9434	3.1773	-0.015904	1.2641	-0.25287	2.7476	-0.0592	0.0182	-0.0073	-0.0462	0.0165	0.9585
40.9977	13.8501	728.595	57.0387	-239.8215	-47.3123	718.4956	2.8919	3.0411	-0.056271	1.2222	-0.19948	2.6566	-0.0592	0.0182	-0.0073	-0.0462	0.0165	0.9585
41.0099	15.9698	726.5494	56.3218	-238.7905	-45.2905	711.8144	2.5588	2.7123	-0.094776	1.0968	-0.094342	2.4352	-0.0592	0.0182	-0.0073	-0.0462	0.0165	0.9585
41.0221	18.0838	725.3127	55.8734	-237.9741	-43.5707	706.0223	2.1008	2.1298	-0.14202	0.85407	0.04495	1.9626	-0.0592	0.0182	-0.0073	-0.0462	0.0165	0.9585
41.0344	20.2977	724.5989	55.6454	-237.2681	-42.0814	700.7783	1.6444	1.1987	-0.18948	0.45498	0.18556	1.0731	-0.0592	0.0182	-0.0073	-0.0462	0.0165	0.9585
41.0466	22.669	724.2448	55.7055	-236.6088	-40.863	695.909	1.2541	-0.15749	-0.24365	-0.1304	0.31481	-0.34719	-0.0592	0.0182	-0.0073	-0.0462	0.0165	0.9585
41.0588	25.3127	724.2325	56.0373	-235.9916	-39.8647	691.3444	0.98206	-1.9552	-0.2919	-0.90783	0.39808	-2.3264	-0.0592	0.0182	-0.0073	-0.0462	0.0165	0.9585
41.071	28.2714	724.6672	56.7003	-235.4521	-39.1194	687.1794	0.88552	-4.1392	-0.31758	-1.8466	0.39011	-4.8103	-0.0592	0.0182	-0.0073	-0.0462	0.0165	0.9585
41.0832	31.6207	725.6855	57.6863	-235.0454	-38.5875	683.5192	0.99056	-6.4449	-0.28246	-2.8321	0.23105	-7.4809	-0.0592	0.0182	-0.0073	-0.0462	0.0165	0.9585
41.0954	35.3434	727.4131	59.0061	-234.8214	-38.2645	680.4966	1.3771	-8.4001	-0.14064	-3.654	-0.15771	-9.7936	-0.0592	0.0182	-0.0073	-0.0462	0.0165	0.9585
41.1076	39.4563	729.9026	60.6124	-234.8136	-38.0909	678.1496	2.0554	-9.1743	0.16601	-3.9547	-0.84943	-10.7556	-0.0592	0.0182	-0.0073	-0.0462	0.0165	0.9585
41.1199	43.8994	733.0688	62.42	-235.0111	-37.9929	676.4165	3.0848	-7.5689	0.69438	-3.2137	-1.9241	-8.9762	-0.0592	0.0182	-0.0073	-0.0462	0.0165	0.9585
41.1321	48.6284	736.6456	64.3222	-235.3449	-37.8832	675.0516	4.405	-1.9255	1.4881	-0.72255	-3.4063	-2.4995	-0.0592	0.0182	-0.0073	-0.0462	0.0165	0.9585
41.1443	53.5326	740.1384	66.1814	-235.6748	-37.6693	673.6307	5.9478	9.7181	2.5634	4.3644	-5.2668	10.9531	-0.0592	0.0182	-0.0073	-0.0462	0.0165	0.9585
41.1565	58.4878	742.7862	67.8566	-235.7784	-37.2708	671.5069	7.4491	29.5094	3.8701	12.9562	-7.33	33.916	-0.0592	0.0182	-0.0073	-0.0462	0.0165	0.9585
41.1687	63.2817	743.4999	69.151	-235.3308	-36.5806	667.7714	8.5245	59.2291	5.2614	25.8087	-9.2415	68.4673	-0.0592	0.0182	-0.0073	-0.0462	0.0165	0.9585
41.1809	67.6862	740.8444	69.851	-233.8951	-35.4964	661.2428	8.488	99.6516	6.4315	43.2288	-10.3464	115.5416	-0.0592	0.0182	-0.0073	-0.0462	0.0165	0.9585
41.1931	71.4382	733.0492	69.6823	-230.9327	-33.8807	650.4567	6.332	149.5228	6.9607	64.6437	-9.7256	173.6896	-0.0592	0.0182	-0.0073	-0.0462	0.0165	0.9585
41.2054	74.2517	718.2342	68.3931	-225.8694	-31.6394	633.8797	1.0632	204.5121	6.3175	88.1542	-6.3624	237.8935	-0.0592	0.0182	-0.0073	-0.0462	0.0165	0.9585
41.2176	75.8555	694.6856	65.7919	-218.1827	-28.7287	610.0945	-6.9783	257.7605	3.7117	110.8042	0.38213	300.1261	-0.0592	0.0182	-0.0073	-0.0462	0.0165	0.9585
41.2298	75.9915	661.382	61.8673	-207.5501	-25.2599	578.3079	-16.3333	304.3298	-0.89065	130.4847	9.8367	354.4443	-0.0592	0.0182	-0.0073	-0.0462	0.0165	0.9585
41.242	74.5063	618.2855	56.8156	-193.9407	-21.4636	538.5375	-25.8352	344.2453	-6.7087	147.1913	20.6401	400.6691	-0.0592	0.0182	-0.0073	-0.0462	0.0165	0.9585
41.2542	71.3787	566.2882	51.0135	-177.6005	-17.6699	491.612	-34.547	380.0941	-13.0565	162.0382	31.6396	441.6653	-0.0592	0.0182	-0.0073	-0.0462	0.0165	0.9585
41.2664	66.712	506.9525	44.8232	-158.992	-14.1367	438.8826	-41.8555	414.4298	-19.1696	176.1489	41.7389	480.3557	-0.0592	0.0182	-0.0073	-0.0462	0.0165	0.9585
41.2786	60.6145	442.4202	38.5063	-138.765	-11.0271	382.1952	-47.4443	448.7827	-24.6871	190.2035	50.3935	518.5098	-0.0592	0.0182	-0.0073	-0.0462	0.0165	0.9585
41.2909	53.2376	375.3042	32.2704	-117.7227	-8.4424	323.7395	-51.173	483.5804	-29.3428	204.4079	57.2662	556.5999	-0.0592	0.0182	-0.0073	-0.0462	0.0165	0.9585
41.3031	44.8104	308.5773	26.2734	-96.786	-6.4213	266.0059	-53.1085	518.6057	-33.2717	218.6741	62.5258	594.3838	-0.0592	0.0182	-0.0073	-0.0462	0.0165	0.9585
41.3153	35.7573	245.2411	20.7161	-76.8974	-4.9764	211.4668	-53.464	553.373	-36.6741	232.7941	66.4907	631.3225	-0.0592	0.0182	-0.0073	-0.0462	0.0165	0.9585
41.3275	26.7017	187.9304	15.7648	-58.891	-4.0264	162.2673	-52.5829	587.2547	-39.8857	246.4892	69.6597	666.7679	-0.0592	0.0182	-0.0073	-0.0462	0.0165	0.9585
41.3397	18.3109	138.4522	11.5893	-43.3425	-3.4781	119.8486	-50.8307	619.4897	-43.0378	259.4402	72.3307	699.9113	-0.0592	0.0182	-0.0073	-0.0462	0.0165	0.9585
41.3519	11.1108	97.5911	8.2119	-30.5096	-3.1668	84.8002	-48.5821	649.2812	-46.2065	271.3139	74.7289	729.9389	-0.0592	0.0182	-0.0073	-0.0462	0.0165	0.9585
41.3641	5.3348	65.2068	5.6144	-20.355	-2.9959	56.9743	-46.0887	675.9558	-49.2725	281.8453	76.834	756.1488	-0.0592	0.0182	-0.0073	-0.0462	0.0165	0.9585
41.3764	1.0574	40.5748	3.6786	-12.6536	-2.8481	35.7522	-43.5228	699.1765	-52.0991	290.91	78.5659	778.2379	-0.0592	0.0182	-0.0073	-0.0462	0.0165	0.9585
41.3886	-1.773	22.6762	2.2764	-7.0823	-2.6392	20.2954	-40.9226	718.8516	-54.5009	298.4885	79.7574	796.1525	-0.0592	0.0182	-0.0073	-0.0462	0.0165	0.9585
41.4008	-3.2336	10.4164	1.2617	-3.2893	-2.2845	9.6748	-38.3708	734.9083	-56.4418	304.555	80.4021	809.9096	-0.0592	0.0182	-0.0073	-0.0462	0.0165	0.9585
41.413	-3.621	2.7364	0.55879	-0.93035	-1.823	2.9937	-35.8956	747.1559	-57.9472	309.0354	80.5464	819.387	-0.0592	0.0182	-0.0073	-0.0462	0.0165	0.9585
41.4252	-3.3554	-1.4144	0.11141	0.33235	-1.3483	-0.652	-33.5662	755.4959	-59.0618	311.8855	80.269	824.5898	-0.0592	0.0182	-0.0073	-0.0462	0.0165	0.9585
41.4374	-2.7795	-3.0925	-0.12372	0.8351	-0.9399	-2.1493	-31.4073	760.0468	-59.7979	313.1603	79.607	825.7207	-0.0592	0.0182	-0.0073	-0.0462	0.0165	0.9585
41.4496	-2.1014	-3.1961	-0.22722	0.86052	-0.60375	-2.2679	-29.4541	761.3516	-60.1539	313.0873	78.5906	823.4356	-0.0592	0.0182	-0.0073	-0.0462	0.0165	0.9585
41.4619	-1.4739	-2.4335	-0.22902	0.62944	-0.37076	-1.6082	-27.6904	760.2694	-60.1579	312.029	77.2659	818.6845	-0.0592	0.0182	-0.0073	-0.0462	0.0165	0.9585
41.4741	-0.94929	-1.2967	-0.1894	0.29077	-0.21194	-0.59892	-26.0975	757.798	-59.8654	310.4002	75.7038	812.5499	-0.0592	0.0182	-0.0073	-0.0462	0.0165	0.9585
41.4863	-0.55723	-0.11051	-0.11486	-0.058878	-0.13202	0.475	-24.64	754.8329	-59.3614	308.574	73.9932	805.9824	-0.0592	0.0182	-0.0073	-0.0462	0.0165	0.9585
41.4985	-0.28407	0.94581	-0.044863	-0.37094	-0.094256	1.443	-23.2847	752.0895	-58.7063	306.8453	72.1994	799.7232	-0.0592	0.0182	-0.0073	-0.0462	0.0165	0.9585
41.5107	-0.11742	1.7891	0.029505	-0.62314	-0.10218	2.228	-22.0034	750.0541	-57.9537	305.4127	70.3765	794.2498	-0.0592	0.0182	-0.0073	-0.0462	0.0165	0.9585
41.5229	-0.025124	2.412	0.085541	-0.81493	-0.12668	2.8154	-20.7528	748.9667	-57.1537	304.3699	68.5606	789.7627	-0.0592	0.0182	-0.0073	-0.0462	0.0165	0.9585
41.5351	0.0041576	2.8383	0.1437	-0.95229	-0.17747	3.2249	-19.4819	748.8704	-56.3701	303.7224	66.793	786.2583	-0.0592	0.0182	-0.0073	-0.0462	0.0165	0.9585
41.5474	-0.0027574	3.1157	0.18836	-1.0471	-0.23221	3.4984	-18.1092	749.6534	-55.6608	303.4172	65.0965	783.5617	-0.0592	0.0182	-0.0073	-0.0462	0.0165	0.9585
41.5596	-0.040147	3.2786	0.23178	-1.1076	-0.297	3.6654	-16.5688	751.1436	-55.0791	303.3763	63.4966	781.456	-0.0592	0.0182	-0.0073	-0.0462	0.0165	0.9585
41.5718	-0.10119	3.3464	0.26728	-1.1403	-0.36569	3.7377	-14.7786	753.1378	-54.6442	303.5197	61.9813	779.6802	-0.0592	0.0182	-0.0073	-0.0462	0.0165	0.9585
41.584	-0.18672	3.3145	0.30616	-1.1417	-0.44795	3.7021	-12.7116	755.4748	-54.3628	303.7861	60.5364	778.04	-0.0592	0.0182	-0.0073	-0.0462	0.0165	0.9585
41.5962	-0.29799	3.1481	0.34396	-1.0979	-0.54184	3.5147	-10.3383	758.0386	-54.2095	304.1412	59.1185	776.3834	-0.0592	0.0182	-0.0073	-0.0462	0.0165	0.9585
41.6084	-0.44796	2.7837	0.39163	-0.98517	-0.65864	3.094	-7.6955	760.767	-54.1516	304.5747	57.6975	774.65	-0.0592	0.0182	-0.0073	-0.0462	0.0165	0.9585
41.6206	-0.61934	2.1489	0.44988	-0.77189	-0.79578	2.3494	-4.8291	763.5859	-54.1416	305.0739	56.2349	772.7765	-0.0592	0.0182	-0.0073	-0.0462	0.0165	0.9585
41.6329	-0.79744	1.1576	0.52295	-0.41407	-0.94664	1.1768	-1.8487	766.3552	-54.1501	305.5932	54.729	770.6749	-0.0592	0.0182	-0.0073	-0.0462	0.0165	0.9585
41.6451	-0.94142	-0.26396	0.59392	0.11662	-1.0796	-0.51389	1.1526	768.7489	-54.1698	306.0096	53.1981	768.0773	-0.0592	0.0182	-0.0073	-0.0462	0.0165	0.9585
41.6573	-1.0017	-2.1532	0.65117	0.8275	-1.1615	-2.751	4.0849	770.2409	-54.2184	306.1137	51.686	764.542	-0.0592	0.0182	-0.0073	-0.0462	0.0165	0.9585
41.6695	-0.87557	-4.4401	0.6573	1.6868	-1.1169	-5.4581	6.9132	770.1698	-54.3204	305.6391	50.2262	759.4814	-0.0592	0.0182	-0.0073	-0.0462	0.0165	0.9585
41.6817	-0.45417	-6.8691	0.57236	2.5953	-0.85299	-8.3313	9.6548	767.9381	-54.5089	304.3408	48.8434	752.3678	-0.0592	0.0182	-0.0073	-0.0462	0.0165	0.9585
41.6939	0.42141	-8.9244	0.33121	3.3552	-0.23704	-10.7728	12.3759	763.1837	-54.8189	302.0701	47.5455	742.8843	-0.0592	0.0182	-0.0073	-0.0462	0.0165	0.9585
41.7061	1.8908	-9.7315	-0.13738	3.6374	0.87199	-11.7546	15.1505	755.9188	-55.2744	298.8271	46.3309	731.0645	-0.0592	0.0182	-0.0073	-0.0462	0.0165	0.9585
41.7184	4.0986	-7.9945	-0.91804	2.956	2.624	-9.7656	18.032	746.5058	-55.8627	294.7569	45.18	717.2733	-0.0592	0.0182	-0.0073	-0.0462	0.0165	0.9585
41.7306	7.0856	-1.9714	-2.0744	0.66077	5.1135	-2.7493	21.0394	735.5324	-56.5255	290.0986	44.0519	702.1026	-0.0592	0.0182	-0.0073	-0.0462	0.0165	0.9585
41.7428	10.7638	10.4604	-3.6397	-4.0381	8.3391	11.7798	24.1507	723.6043	-57.1578	285.098	42.881	686.1778	-0.0592	0.0182	-0.0073	-0.0462	0.0165	0.9585
41.755	14.7328	31.559	-5.5494	-11.9749	12.076	36.4887	27.3201	711.0696	-57.6153	279.9012	41.5704	669.8805	-0.0592	0.0182	-0.0073	-0.0462	0.0165	0.9585
